<svg width="69" height="69" viewBox="0 0 69 69" fill="none" xmlns="http://www.w3.org/2000/svg">
<circle cx="34.5" cy="34.5" r="34.5" fill="#F5F5F5"/>
<path d="M43.25 26.75H43.265M27.5 20H42.5C46.6421 20 50 23.3579 50 27.5V42.5C50 46.6421 46.6421 50 42.5 50H27.5C23.3579 50 20 46.6421 20 42.5V27.5C20 23.3579 23.3579 20 27.5 20ZM41 34.055C41.1851 35.3034 40.9719 36.5783 40.3906 37.6985C39.8094 38.8187 38.8897 39.7271 37.7624 40.2945C36.6352 40.8619 35.3577 41.0594 34.1117 40.8589C32.8657 40.6584 31.7146 40.0701 30.8223 39.1777C29.9299 38.2854 29.3416 37.1343 29.1411 35.8883C28.9406 34.6423 29.1381 33.3648 29.7055 32.2376C30.2729 31.1103 31.1813 30.1906 32.3015 29.6094C33.4217 29.0281 34.6966 28.8149 35.945 29C37.2184 29.1888 38.3973 29.7822 39.3075 30.6925C40.2178 31.6027 40.8112 32.7816 41 34.055Z" stroke="url(#paint0_linear_75_3)" stroke-width="2" stroke-linecap="round" stroke-linejoin="round"/>
<defs>
<linearGradient id="paint0_linear_75_3" x1="35" y1="20" x2="35" y2="50" gradientUnits="userSpaceOnUse">
<stop stop-color="#DC143C"/>
<stop offset="1" stop-color="#2E2E2E"/>
</linearGradient>
</defs>
</svg>
